<?xml version="1.0" encoding="UTF-8" standalone="no"?>
<svg
   xmlns:dc="http://purl.org/dc/elements/1.1/"
   xmlns:cc="http://creativecommons.org/ns#"
   xmlns:rdf="http://www.w3.org/1999/02/22-rdf-syntax-ns#"
   xmlns:svg="http://www.w3.org/2000/svg"
   xmlns="http://www.w3.org/2000/svg"
   xmlns:xlink="http://www.w3.org/1999/xlink"
   xmlns:sodipodi="http://sodipodi.sourceforge.net/DTD/sodipodi-0.dtd"
   xmlns:inkscape="http://www.inkscape.org/namespaces/inkscape"
   width="40.639999mm"
   height="128.5mm"
   viewBox="0 0 40.64 128.5"
   version="1.1"
   id="svg8"
   inkscape:version="1.0 (4035a4fb49, 2020-05-01)"
   sodipodi:docname="dasbutpoly.svg">
  <defs
     id="defs2">
    <linearGradient
       id="linearGradient866"
       inkscape:collect="always">
      <stop
         id="stop862"
         offset="0"
         style="stop-color:#b3a3a3;stop-opacity:1" />
      <stop
         id="stop864"
         offset="1"
         style="stop-color:#585858;stop-opacity:1" />
    </linearGradient>
    <linearGradient
       gradientTransform="matrix(2.0627449,0,0,0.9988916,-0.61749056,-0.17871937)"
       gradientUnits="userSpaceOnUse"
       y2="101.40046"
       x2="39.179836"
       y1="32.979465"
       x1="-13.247176"
       id="linearGradient868"
       xlink:href="#linearGradient866"
       inkscape:collect="always" />
  </defs>
  <sodipodi:namedview
     inkscape:pagecheckerboard="false"
     showborder="false"
     showguides="false"
     id="base"
     pagecolor="#cecece"
     bordercolor="#666666"
     borderopacity="1.0"
     inkscape:pageopacity="0"
     inkscape:pageshadow="2"
     inkscape:zoom="1.4"
     inkscape:cx="125.12519"
     inkscape:cy="228.63861"
     inkscape:document-units="mm"
     inkscape:current-layer="layer2"
     inkscape:document-rotation="0"
     showgrid="false"
     inkscape:window-width="1920"
     inkscape:window-height="1017"
     inkscape:window-x="-8"
     inkscape:window-y="-8"
     inkscape:window-maximized="1" />
  <metadata
     id="metadata5">
    <rdf:RDF>
      <cc:Work
         rdf:about="">
        <dc:format>image/svg+xml</dc:format>
        <dc:type
           rdf:resource="http://purl.org/dc/dcmitype/StillImage" />
        <dc:title></dc:title>
      </cc:Work>
    </rdf:RDF>
  </metadata>
  <g
     style="display:inline"
     inkscape:label="Layer 1"
     inkscape:groupmode="layer"
     id="layer1">
    <rect
       style="opacity:0.998;fill:#000000;stroke:url(#linearGradient868);stroke-width:0.466515;stroke-miterlimit:4;stroke-dasharray:none"
       id="rect839"
       width="40.213486"
       height="127.53362"
       x="0.2332575"
       y="0.2332575" />
  </g>
  <g
     style="display:inline"
     inkscape:groupmode="layer"
     id="layer2"
     inkscape:label="Layer 2">
    <g
       inkscape:label="text835"
       aria-label="Das But"
       transform="matrix(0.87594573,0,0,0.8315898,1.488644,5.0555393)"
       id="text835"
       style="font-style:normal;font-weight:normal;font-size:9.93704px;line-height:1.25;font-family:sans-serif;fill:#e3dbdb;fill-opacity:1;stroke:none;stroke-width:0.248425">
      <path
         d="m 3.2714904,8.6029429 h 0.6162129 q 0.4706509,0 0.6598816,-0.067929 0.1892308,-0.067929 0.3008284,-0.2328994 0.1940828,-0.2911242 0.276568,-0.7957396 0.082485,-0.5094674 0.082485,-1.6254436 0,-1.0868637 -0.097041,-1.5817749 Q 5.0133837,3.8042452 4.7804843,3.5519375 4.6591825,3.4257837 4.4650997,3.377263 4.275869,3.3238902 3.868295,3.3238902 H 3.2714904 Z m -1.3634318,1.10142 V 2.2321743 h 2.2368045 q 0.6841419,0 1.0868637,0.1164497 0.407574,0.1164497 0.6695858,0.3784615 0.3930177,0.3833136 0.553136,0.9704141 0.1649704,0.5822485 0.1649704,1.8146744 0,1.5914791 -0.1115976,2.2513607 Q 6.3962238,8.4185642 6.1293599,8.8795109 5.8722001,9.3404576 5.4112534,9.5248363 4.9551588,9.7043629 3.8246264,9.7043629 Z"
         style="font-style:normal;font-variant:normal;font-weight:normal;font-stretch:normal;font-family:'Swis721 Cn BT D-Type';-inkscape-font-specification:'Swis721 Cn BT D-Type';fill:#e3dbdb;stroke-width:0.248425"
         id="path845" />
      <path
         d="M 9.3329426,6.7057833 H 10.516847 L 9.9200431,3.5713458 Z M 7.3338895,9.7043629 9.017558,2.2321743 h 1.868047 l 1.698224,7.4721886 h -1.49929 L 10.715782,7.8266116 H 9.1145994 L 8.7555462,9.7043629 Z"
         style="font-style:normal;font-variant:normal;font-weight:normal;font-stretch:normal;font-family:'Swis721 Cn BT D-Type';-inkscape-font-specification:'Swis721 Cn BT D-Type';fill:#e3dbdb;stroke-width:0.248425"
         id="path847" />
      <path
         d="m 13.436579,7.0793927 h 1.392544 v 0.480355 q 0,0.688994 0.169823,0.9413017 0.174674,0.2474556 0.596804,0.2474556 0.441539,0 0.669586,-0.2231953 0.232899,-0.2231952 0.232899,-0.6598815 0,-0.3347929 -0.160118,-0.5725444 -0.160118,-0.2426035 -0.693846,-0.621065 L 14.931017,6.1672035 Q 14.009123,5.5267302 13.756816,5.1094521 13.50936,4.6921741 13.50936,4.0614049 q 0,-0.9413017 0.557988,-1.4750294 0.557988,-0.5337278 1.538106,-0.5337278 1.038344,0 1.59148,0.5676923 0.553136,0.5676922 0.553136,1.6302957 0,0.1067455 -0.0049,0.1649704 0,0.058225 -0.0049,0.1018934 H 16.420602 V 4.3185646 q 0,-0.6065088 -0.198935,-0.8685206 -0.198934,-0.2620118 -0.655029,-0.2620118 -0.334793,0 -0.528876,0.1989349 -0.189231,0.1940828 -0.189231,0.5434319 0,0.4706508 0.858817,1.0431952 0.0097,0.00485 0.01456,0.0097 l 0.766627,0.5191715 q 0.82,0.5434319 1.111124,1.028639 0.291125,0.480355 0.291125,1.2275738 0,1.0189348 -0.582249,1.5720708 -0.582248,0.5531361 -1.66426,0.5531361 -1.12568,0 -1.678816,-0.5822485 -0.548284,-0.5822484 -0.548284,-1.7758578 0,-0.1261538 0.01941,-0.417278 z"
         style="font-style:normal;font-variant:normal;font-weight:normal;font-stretch:normal;font-family:'Swis721 Cn BT D-Type';-inkscape-font-specification:'Swis721 Cn BT D-Type';fill:#e3dbdb;stroke-width:0.248425"
         id="path849" />
      <path
         d="m 3.5365364,18.725462 h 0.5725443 q 0.5385799,0 0.756923,-0.262012 0.2183432,-0.266863 0.2183432,-0.921893 0,-0.67929 -0.2377514,-0.936449 -0.2377515,-0.25716 -0.892781,-0.25716 H 3.5365364 Z m 0,-3.377041 h 0.4657988 q 0.5240236,0 0.7229585,-0.228047 0.1989349,-0.228047 0.1989349,-0.839408 0,-0.548284 -0.203787,-0.747219 Q 4.5215067,13.32996 3.9635186,13.32996 H 3.5365364 Z m -1.3537276,4.439645 v -7.472189 h 2.2368045 q 0.9607099,0 1.4265087,0.446391 0.4706508,0.44639 0.4706508,1.373136 0,0.742366 -0.2328994,1.14994 -0.2280473,0.407574 -0.688994,0.490059 0.5240236,0.07278 0.8151479,0.524024 0.2959763,0.446391 0.2959763,1.183905 0,1.188758 -0.4997633,1.746746 -0.4949112,0.557988 -1.5478105,0.557988 z"
         style="font-style:normal;font-variant:normal;font-weight:normal;font-stretch:normal;font-family:'Swis721 Cn BT D-Type';-inkscape-font-specification:'Swis721 Cn BT D-Type';fill:#e3dbdb;stroke-width:0.248425"
         id="path851" />
      <path
         d="m 7.4952207,12.315877 h 1.3925442 v 5.036449 q 0,0.863669 0.208639,1.174201 0.2134911,0.305681 0.7520709,0.305681 0.5337282,0 0.7375152,-0.310533 0.208639,-0.310532 0.208639,-1.188757 v -5.017041 h 1.373136 v 5.157751 q 0,0.752071 -0.08734,1.10142 -0.08249,0.344497 -0.28142,0.606509 -0.300829,0.393018 -0.79574,0.591953 -0.494911,0.194082 -1.1742014,0.194082 -1.2809466,0 -1.8098223,-0.553136 -0.5240236,-0.557988 -0.5240236,-1.940828 z"
         style="font-style:normal;font-variant:normal;font-weight:normal;font-stretch:normal;font-family:'Swis721 Cn BT D-Type';-inkscape-font-specification:'Swis721 Cn BT D-Type';fill:#e3dbdb;stroke-width:0.248425"
         id="path853" />
      <path
         d="m 14.622306,19.788066 v -6.239763 h -1.601183 v -1.232426 h 4.594911 v 1.232426 h -1.601183 v 6.239763 z"
         style="font-style:normal;font-variant:normal;font-weight:normal;font-stretch:normal;font-family:'Swis721 Cn BT D-Type';-inkscape-font-specification:'Swis721 Cn BT D-Type';fill:#e3dbdb;stroke-width:0.248425"
         id="path855" />
    </g>
    <g
       transform="translate(10.18,-0.52916667)"
       aria-label="VICMLXIX"
       id="text988"
       style="font-style:normal;font-variant:normal;font-weight:normal;font-stretch:normal;font-size:3.175px;line-height:1.25;font-family:'Times New Roman';-inkscape-font-specification:'Times New Roman, ';fill:#e3dbdb;fill-opacity:1;stroke:none;stroke-width:0.264583">
      <path
         d="m 4.4758505,124.44993 v 0.0574 q -0.1116211,0.0202 -0.168982,0.0713 -0.082166,0.076 -0.1457275,0.23254 l -0.7332886,1.78904 H 3.3704916 L 2.5829428,124.7879 q -0.060462,-0.13953 -0.085266,-0.17053 -0.038757,-0.0481 -0.096118,-0.0744 -0.055811,-0.0279 -0.1519287,-0.0357 v -0.0574 h 0.8588623 v 0.0574 q -0.1457276,0.0139 -0.1891358,0.0496 -0.043408,0.0357 -0.043408,0.0915 0,0.0775 0.071314,0.24185 l 0.5348511,1.23248 0.4960937,-1.21698 q 0.072864,-0.17983 0.072864,-0.2496 0,-0.045 -0.044958,-0.0853 -0.044958,-0.0419 -0.1519287,-0.0589 -0.00775,-0.002 -0.026355,-0.005 v -0.0574 z"
         style="font-style:normal;font-variant:normal;font-weight:normal;font-stretch:normal;font-size:3.175px;font-family:'Times New Roman';-inkscape-font-specification:'Times New Roman, ';fill:#e3dbdb;fill-opacity:1;stroke-width:0.264583"
         id="path990" />
      <path
         d="m 5.4959432,126.49477 v 0.0574 H 4.595223 v -0.0574 h 0.074414 q 0.1302246,0 0.1891357,-0.076 0.037207,-0.0496 0.037207,-0.23875 V 124.822 q 0,-0.15968 -0.020154,-0.21084 -0.015503,-0.0387 -0.063562,-0.0667 -0.068213,-0.0372 -0.142627,-0.0372 H 4.595223 v -0.0574 h 0.9007202 v 0.0574 h -0.075964 q -0.1286743,0 -0.1875855,0.076 -0.038757,0.0496 -0.038757,0.23874 v 1.35806 q 0,0.15968 0.020154,0.21084 0.015503,0.0388 0.065112,0.0667 0.066663,0.0372 0.1410767,0.0372 z"
         style="font-style:normal;font-variant:normal;font-weight:normal;font-stretch:normal;font-size:3.175px;font-family:'Times New Roman';-inkscape-font-specification:'Times New Roman, ';fill:#e3dbdb;fill-opacity:1;stroke-width:0.264583"
         id="path992" />
      <path
         d="m 7.4880698,124.40188 0.048059,0.71468 h -0.048059 q -0.096118,-0.32091 -0.2744019,-0.46199 -0.1782836,-0.14107 -0.4278808,-0.14107 -0.2092896,0 -0.3782715,0.10697 -0.1689819,0.10542 -0.2666504,0.33796 -0.096118,0.23254 -0.096118,0.57826 0,0.28525 0.091467,0.49454 0.091467,0.20929 0.2744019,0.32091 0.1844849,0.11162 0.4201294,0.11162 0.2046387,0 0.3612182,-0.0868 0.1565796,-0.0884 0.3441651,-0.34882 l 0.048059,0.031 q -0.1581299,0.2806 -0.3689698,0.41083 -0.2108398,0.13022 -0.5007446,0.13022 -0.5224487,0 -0.8092529,-0.38757 -0.2139404,-0.28836 -0.2139404,-0.67903 0,-0.31471 0.1410766,-0.57826 0.1410767,-0.26355 0.3875733,-0.40773 0.2480468,-0.14572 0.5410522,-0.14572 0.2278931,0 0.449585,0.11162 0.065112,0.0341 0.093017,0.0341 0.041858,0 0.072864,-0.0294 0.040308,-0.0419 0.057361,-0.11627 z"
         style="font-style:normal;font-variant:normal;font-weight:normal;font-stretch:normal;font-size:3.175px;font-family:'Times New Roman';-inkscape-font-specification:'Times New Roman, ';fill:#e3dbdb;fill-opacity:1;stroke-width:0.264583"
         id="path994" />
      <path
         d="m 8.9965046,126.55213 -0.8123535,-1.76888 v 1.40456 q 0,0.19379 0.041858,0.24185 0.057361,0.0651 0.1813843,0.0651 h 0.074414 v 0.0574 H 7.750069 v -0.0574 h 0.074414 q 0.1333252,0 0.1891357,-0.0806 0.034107,-0.0496 0.034107,-0.22635 v -1.37356 q 0,-0.13952 -0.031006,-0.20153 -0.021704,-0.045 -0.080615,-0.0744 -0.057361,-0.031 -0.1860352,-0.031 v -0.0574 H 8.345382 l 0.7627442,1.64487 0.7503418,-1.64487 h 0.595312 v 0.0574 h -0.07286 q -0.134875,0 -0.190686,0.0806 -0.03411,0.0496 -0.03411,0.22634 v 1.37356 q 0,0.19379 0.04341,0.24185 0.05736,0.0651 0.181384,0.0651 h 0.07286 v 0.0574 H 9.5608112 v -0.0574 h 0.074414 q 0.1348755,0 0.1891357,-0.0806 0.034107,-0.0496 0.034107,-0.22635 v -1.40456 l -0.8108033,1.76888 z"
         style="font-style:normal;font-variant:normal;font-weight:normal;font-stretch:normal;font-size:3.175px;font-family:'Times New Roman';-inkscape-font-specification:'Times New Roman, ';fill:#e3dbdb;fill-opacity:1;stroke-width:0.264583"
         id="path996" />
      <path
         d="m 12.338936,125.97077 0.05116,0.0109 -0.179834,0.57051 h -1.627808 v -0.0574 h 0.07906 q 0.133325,0 0.190686,-0.0868 0.03256,-0.0496 0.03256,-0.22944 V 124.822 q 0,-0.19688 -0.04341,-0.24649 -0.06046,-0.0682 -0.179834,-0.0682 h -0.07906 v -0.0574 h 0.95188 v 0.0574 q -0.167431,-0.002 -0.235644,0.031 -0.06666,0.0326 -0.09147,0.0822 -0.0248,0.0496 -0.0248,0.23719 v 1.32085 q 0,0.12868 0.0248,0.17673 0.0186,0.0326 0.05736,0.0481 0.03876,0.0155 0.241846,0.0155 h 0.153479 q 0.241846,0 0.339514,-0.0357 0.09767,-0.0357 0.178284,-0.12557 0.08061,-0.0915 0.16123,-0.28681 z"
         style="font-style:normal;font-variant:normal;font-weight:normal;font-stretch:normal;font-size:3.175px;font-family:'Times New Roman';-inkscape-font-specification:'Times New Roman, ';fill:#e3dbdb;fill-opacity:1;stroke-width:0.264583"
         id="path998" />
      <path
         d="m 13.755904,125.38786 0.451135,0.67283 q 0.187585,0.27905 0.277502,0.35347 0.09147,0.0729 0.230994,0.0806 v 0.0574 h -0.90227 v -0.0574 q 0.08992,-0.002 0.133325,-0.0186 0.03256,-0.014 0.05271,-0.0419 0.0217,-0.0295 0.0217,-0.0589 0,-0.0357 -0.01395,-0.0713 -0.01085,-0.0263 -0.08527,-0.13642 l -0.356567,-0.5395 -0.440283,0.5643 q -0.06976,0.0899 -0.08372,0.12093 -0.01395,0.0294 -0.01395,0.062 0,0.0496 0.04186,0.0822 0.04186,0.0326 0.15968,0.0372 v 0.0574 h -0.745691 v -0.0574 q 0.07906,-0.008 0.136426,-0.0326 0.09612,-0.0403 0.182935,-0.10852 0.08682,-0.0682 0.198437,-0.20929 l 0.496094,-0.62631 -0.413928,-0.60617 q -0.168982,-0.24649 -0.286805,-0.32246 -0.117822,-0.0775 -0.271301,-0.0822 v -0.0574 h 0.972034 v 0.0574 q -0.124024,0.005 -0.170532,0.0403 -0.04496,0.0357 -0.04496,0.0791 0,0.0574 0.07441,0.16743 l 0.322461,0.48214 0.373621,-0.47284 q 0.06511,-0.0837 0.07906,-0.11472 0.0155,-0.031 0.0155,-0.0636 0,-0.0326 -0.0186,-0.0574 -0.02325,-0.0326 -0.05891,-0.045 -0.03566,-0.014 -0.147278,-0.0155 v -0.0574 h 0.745691 v 0.0574 q -0.08837,0.005 -0.144177,0.0279 -0.08372,0.0357 -0.153479,0.0961 -0.06976,0.0605 -0.196887,0.22324 z"
         style="font-style:normal;font-variant:normal;font-weight:normal;font-stretch:normal;font-size:3.175px;font-family:'Times New Roman';-inkscape-font-specification:'Times New Roman, ';fill:#e3dbdb;fill-opacity:1;stroke-width:0.264583"
         id="path1000" />
      <path
         d="m 15.734078,126.49477 v 0.0574 h -0.900721 v -0.0574 h 0.07441 q 0.130225,0 0.189136,-0.076 0.03721,-0.0496 0.03721,-0.23875 V 124.822 q 0,-0.15968 -0.02015,-0.21084 -0.0155,-0.0387 -0.06356,-0.0667 -0.06821,-0.0372 -0.142627,-0.0372 h -0.07441 v -0.0574 h 0.900721 v 0.0574 h -0.07597 q -0.128674,0 -0.187585,0.076 -0.03876,0.0496 -0.03876,0.23874 v 1.35806 q 0,0.15968 0.02015,0.21084 0.0155,0.0388 0.06511,0.0667 0.06666,0.0372 0.141076,0.0372 z"
         style="font-style:normal;font-variant:normal;font-weight:normal;font-stretch:normal;font-size:3.175px;font-family:'Times New Roman';-inkscape-font-specification:'Times New Roman, ';fill:#e3dbdb;fill-opacity:1;stroke-width:0.264583"
         id="path1002" />
      <path
         d="m 17.110738,125.38786 0.451136,0.67283 q 0.187585,0.27905 0.277502,0.35347 0.09147,0.0729 0.230994,0.0806 v 0.0574 h -0.902271 v -0.0574 q 0.08992,-0.002 0.133325,-0.0186 0.03256,-0.014 0.05271,-0.0419 0.0217,-0.0295 0.0217,-0.0589 0,-0.0357 -0.01395,-0.0713 -0.01085,-0.0263 -0.08527,-0.13642 l -0.356568,-0.5395 -0.440283,0.5643 q -0.06976,0.0899 -0.08372,0.12093 -0.01395,0.0294 -0.01395,0.062 0,0.0496 0.04186,0.0822 0.04186,0.0326 0.15968,0.0372 v 0.0574 h -0.745691 v -0.0574 q 0.07906,-0.008 0.136426,-0.0326 0.09612,-0.0403 0.182934,-0.10852 0.08682,-0.0682 0.198438,-0.20929 l 0.496093,-0.62631 -0.413928,-0.60617 q -0.168982,-0.24649 -0.286804,-0.32246 -0.117822,-0.0775 -0.271301,-0.0822 v -0.0574 h 0.972033 v 0.0574 q -0.124023,0.005 -0.170532,0.0403 -0.04496,0.0357 -0.04496,0.0791 0,0.0574 0.07441,0.16743 l 0.322461,0.48214 0.37362,-0.47284 q 0.06511,-0.0837 0.07906,-0.11472 0.0155,-0.031 0.0155,-0.0636 0,-0.0326 -0.0186,-0.0574 -0.02325,-0.0326 -0.05891,-0.045 -0.03566,-0.014 -0.147278,-0.0155 v -0.0574 h 0.745691 v 0.0574 q -0.08837,0.005 -0.144178,0.0279 -0.08371,0.0357 -0.153479,0.0961 -0.06976,0.0605 -0.196887,0.22324 z"
         style="font-style:normal;font-variant:normal;font-weight:normal;font-stretch:normal;font-size:3.175px;font-family:'Times New Roman';-inkscape-font-specification:'Times New Roman, ';fill:#e3dbdb;fill-opacity:1;stroke-width:0.264583"
         id="path1004" />
    </g>
    <path
       sodipodi:nodetypes="cc"
       id="path858"
       d="m 21.681837,11.0305 c 16.526879,5.199875 11.802177,29.158932 11.802177,29.158932"
       style="display:none;fill:#000000;fill-opacity:1;stroke:#000000;stroke-width:0.238449px;stroke-linecap:butt;stroke-linejoin:miter;stroke-opacity:1" />
    <g
       style="font-style:italic;font-variant:normal;font-weight:normal;font-stretch:normal;font-size:8.46667px;line-height:1.25;font-family:'Fira Code iScript';-inkscape-font-specification:'Fira Code iScript Italic';fill:#e3dbdb;fill-opacity:1;stroke-width:0.264583"
       id="text866"
       aria-label="Poly">
      <path
         id="path1122"
         style="font-style:italic;font-variant:normal;font-weight:normal;font-stretch:normal;font-size:8.46667px;font-family:'Fira Code iScript';-inkscape-font-specification:'Fira Code iScript Italic';fill:#e3dbdb;fill-opacity:1;stroke-width:0.264583"
         d="M 24.232071,6.7033366 24.388802,6.361335 q 0.641238,-0.019917 1.231434,0.091391 0.591919,0.1075501 1.084251,0.3331745 0.612596,0.2807386 0.792381,0.6723638 0.185265,0.3895893 -0.05586,0.9157457 -0.337575,0.736619 -1.276637,1.0293313 -0.933581,0.2906763 -2.148738,0.024842 -0.302512,0.4616439 -0.61034,1.0936587 -0.290604,0.594433 -0.522203,0.583796 l -0.396488,-0.01799 q -0.0092,3.14e-4 -0.01848,6.27e-4 -0.0075,-0.0034 -0.02631,-0.01206 -0.03758,-0.01722 -0.04635,-0.05762 -0.0033,-0.04244 0.02599,-0.106327 0.277294,-0.605079 0.966397,-1.7217611 0.690827,-1.1204397 1.573314,-2.3713285 -0.156906,-0.044621 -0.340902,-0.069824 -0.182273,-0.028961 -0.38819,-0.04602 z m 0.01091,2.3379004 Q 25.17267,9.2353661 25.869958,9.013757 26.567247,8.7921483 26.822151,8.2359258 26.97716,7.8976824 26.865811,7.614728 26.754465,7.331774 26.408705,7.1733203 26.280924,7.1147613 26.080955,7.054953 25.882708,6.9913864 25.580798,6.925789 25.282198,7.3392028 24.94524,7.8760119 24.610004,8.4090627 24.242985,9.041237 Z" />
      <path
         id="path1124"
         style="font-style:italic;font-variant:normal;font-weight:normal;font-stretch:normal;font-size:8.46667px;font-family:'Fira Code iScript';-inkscape-font-specification:'Fira Code iScript Italic';fill:#e3dbdb;fill-opacity:1;stroke-width:0.264583"
         d="M 30.240588,11.56678 29.986603,11.617 q -0.05244,0.0043 -0.09419,-0.004 -0.03592,-0.0088 -0.06745,-0.03552 -0.03468,-0.02941 -0.09671,-0.141634 -0.05888,-0.10955 -0.112478,-0.155004 -0.293236,-0.248659 -1.022296,0.01663 -0.725906,0.267966 -1.266006,0.904888 -0.318177,0.375217 -0.359543,0.692465 -0.03554,0.316769 0.210402,0.525323 0.343686,0.29144 0.943245,0.127727 0.602711,-0.161038 1.011796,-0.64346 0.1631,-0.192338 0.312022,-0.521367 0.154749,-0.329508 0.224266,-0.411488 0.06952,-0.08198 0.154045,-0.124131 0.09035,-0.04263 0.164387,-0.03405 l 0.43207,0.04659 q 0.08301,0.01077 0.146353,0.03196 0.06601,0.01803 0.100696,0.04745 0.08829,0.07486 0.03302,0.223135 -0.05211,0.150944 -0.244623,0.377966 -0.417107,0.49188 -0.958142,0.86783 -0.538362,0.372798 -1.139913,0.583604 -0.475756,0.171127 -0.908305,0.118715 -0.429876,-0.05557 -0.742031,-0.320268 -0.438278,-0.371653 -0.437199,-0.929037 0.0011,-0.557385 0.44225,-1.077643 0.427802,-0.504493 1.113677,-0.795565 0.685875,-0.291071 1.405655,-0.276952 0.291065,0.0083 0.510215,0.06949 0.224978,0.06069 0.351101,0.167638 0.148195,0.125667 0.22276,0.318986 0.08039,0.19284 0.01622,0.268514 -0.01337,0.01577 -0.0362,0.02351 -0.02283,0.0077 -0.05512,0.0075 z" />
      <path
         id="path1126"
         style="font-style:italic;font-variant:normal;font-weight:normal;font-stretch:normal;font-size:8.46667px;font-family:'Fira Code iScript';-inkscape-font-specification:'Fira Code iScript Italic';fill:#e3dbdb;fill-opacity:1;stroke-width:0.264583"
         d="m 32.180732,15.304839 q 0.923952,0.08555 1.711897,-0.0064 0.790274,-0.0885 1.0567,-0.27015 0.112719,-0.07685 0.121104,-0.262699 0.0084,-0.185846 -0.08244,-0.31906 -0.04891,-0.07173 -0.180878,-0.08182 -0.129642,-0.0067 -0.458017,0.0621 -0.645261,0.139732 -1.179666,0.353989 -0.532077,0.217673 -0.988698,0.524 z m -1.34362,0.245617 q -0.397466,-0.06925 -0.806886,-0.185383 -0.407091,-0.11272 -0.830795,-0.27916 l 0.145479,-0.344366 q 0.288007,0.128867 0.757047,0.244381 0.46904,0.115515 1.179976,0.226218 1.442057,-0.923172 2.608216,-1.25294 1.168488,-0.326353 1.43631,0.06646 0.09781,0.14346 0.155569,0.404297 0.05776,0.260837 0.06598,0.610483 0.01382,0.225748 -0.02158,0.349955 -0.0354,0.124208 -0.134456,0.191746 -0.293753,0.200285 -1.327784,0.224813 -1.034032,0.02453 -2.363833,-0.164583 -0.884518,0.618087 -1.043506,0.986674 -0.155571,0.366258 0.17746,0.854707 0.181653,0.266426 0.43395,0.489691 0.254626,0.22668 0.572908,0.399951 l -0.166284,0.32853 Q 31.17712,18.470902 30.795492,18.160691 30.41728,17.848151 30.156444,17.46559 29.809439,16.956647 29.959732,16.523938 30.112354,16.094644 30.83711,15.55046 Z" />
      <path
         id="path1128"
         style="font-style:italic;font-variant:normal;font-weight:normal;font-stretch:normal;font-size:8.46667px;font-family:'Fira Code iScript';-inkscape-font-specification:'Fira Code iScript Italic';fill:#e3dbdb;fill-opacity:1;stroke-width:0.264583"
         d="m 35.237977,18.536279 0.57842,0.687074 q -1.259138,0.03109 -2.114684,0.115986 -0.855545,0.08489 -1.155415,0.203466 -0.14609,0.05777 -0.196333,0.144316 -0.0464,0.08503 7.26e-4,0.204209 0.08361,0.211447 0.581891,0.392293 0.499804,0.184692 1.924991,0.483598 0.505776,-0.159979 0.888979,-0.191471 0.388568,-0.02917 0.726,0.05969 l 0.330137,0.767465 q -0.329557,0.05474 -0.684868,0.02185 -0.355311,-0.03288 -0.757119,-0.149629 -0.265809,0.04731 -0.751381,0.145954 -2.317088,0.43608 -2.839771,0.407139 -0.559521,-0.03216 -1.0402,-0.393341 -0.479159,-0.357341 -0.6935,-0.899413 -0.04713,-0.119179 -0.07807,-0.253648 -0.03094,-0.134468 -0.05402,-0.316503 l 0.611636,-0.139599 q 0.05661,0.24435 0.114198,0.434966 0.05526,0.19598 0.10847,0.330537 0.2037,0.515161 0.477924,0.669019 0.274224,0.153857 1.058598,0.01264 l 1.554977,-0.294773 q -1.034561,-0.266651 -1.489574,-0.517954 -0.455013,-0.251303 -0.593347,-0.601151 -0.109451,-0.276803 0.0097,-0.515083 0.124534,-0.235955 0.443626,-0.362128 0.284492,-0.112491 1.032656,-0.221609 0.748165,-0.109118 2.005332,-0.223897 z" />
    </g>
  </g>
</svg>
